<mxfile host="app.diagrams.net" agent="Mozilla/5.0 (Windows NT 10.0; Win64; x64) AppleWebKit/537.36 (KHTML, like Gecko) Chrome/131.0.0.0 Safari/537.36" version="26.0.2">
  <diagram name="Page-1" id="ErrIRUMbjhU_Ns61vm9J">
    <mxGraphModel dx="913" dy="461" grid="1" gridSize="10" guides="1" tooltips="1" connect="1" arrows="1" fold="1" page="1" pageScale="1" pageWidth="3300" pageHeight="4681" math="0" shadow="0">
      <root>
        <mxCell id="0" />
        <mxCell id="1" parent="0" />
        <mxCell id="K9udEW_bLaCcs6DvAatC-1" value="&lt;span id=&quot;docs-internal-guid-e63f9195-7fff-ff98-d626-0c9858815c69&quot;&gt;&lt;span style=&quot;font-family: &amp;quot;Times New Roman&amp;quot;, serif; background-color: transparent; font-variant-numeric: normal; font-variant-east-asian: normal; font-variant-alternates: normal; font-variant-position: normal; font-variant-emoji: normal; vertical-align: baseline; white-space-collapse: preserve;&quot;&gt;&lt;font style=&quot;font-size: 13px;&quot;&gt;Nền tảng trực tuyến kết nối freelancer và khách hàng trong ngành media&lt;/font&gt;&lt;/span&gt;&lt;/span&gt;" style="rounded=0;whiteSpace=wrap;html=1;" vertex="1" parent="1">
          <mxGeometry x="1020" y="110" width="140" height="70" as="geometry" />
        </mxCell>
        <mxCell id="K9udEW_bLaCcs6DvAatC-2" value="Quản lý System Code" style="rounded=0;whiteSpace=wrap;html=1;" vertex="1" parent="1">
          <mxGeometry x="340" y="210" width="120" height="60" as="geometry" />
        </mxCell>
        <mxCell id="K9udEW_bLaCcs6DvAatC-3" value="Quản lý tham số hệ thống" style="rounded=0;whiteSpace=wrap;html=1;" vertex="1" parent="1">
          <mxGeometry x="483" y="210" width="120" height="60" as="geometry" />
        </mxCell>
        <mxCell id="K9udEW_bLaCcs6DvAatC-4" value="Quản lý tải khoản" style="rounded=0;whiteSpace=wrap;html=1;" vertex="1" parent="1">
          <mxGeometry x="626" y="210" width="120" height="60" as="geometry" />
        </mxCell>
        <mxCell id="K9udEW_bLaCcs6DvAatC-5" value="Quản lý Freelancer" style="rounded=0;whiteSpace=wrap;html=1;" vertex="1" parent="1">
          <mxGeometry x="912" y="210" width="120" height="60" as="geometry" />
        </mxCell>
        <mxCell id="K9udEW_bLaCcs6DvAatC-6" value="Quản lý khách hàng" style="rounded=0;whiteSpace=wrap;html=1;" vertex="1" parent="1">
          <mxGeometry x="769" y="210" width="120" height="60" as="geometry" />
        </mxCell>
        <mxCell id="K9udEW_bLaCcs6DvAatC-7" value="Quản lý công việc" style="rounded=0;whiteSpace=wrap;html=1;" vertex="1" parent="1">
          <mxGeometry x="1055" y="210" width="120" height="60" as="geometry" />
        </mxCell>
        <mxCell id="K9udEW_bLaCcs6DvAatC-8" value="Xứ lý hợp đồng tranh cháp" style="rounded=0;whiteSpace=wrap;html=1;" vertex="1" parent="1">
          <mxGeometry x="1198" y="210" width="120" height="60" as="geometry" />
        </mxCell>
        <mxCell id="K9udEW_bLaCcs6DvAatC-9" value="Tạo công việc" style="rounded=0;whiteSpace=wrap;html=1;" vertex="1" parent="1">
          <mxGeometry x="1342" y="210" width="120" height="60" as="geometry" />
        </mxCell>
        <mxCell id="K9udEW_bLaCcs6DvAatC-10" value="Quản lý hợp đồng" style="rounded=0;whiteSpace=wrap;html=1;" vertex="1" parent="1">
          <mxGeometry x="1485" y="210" width="120" height="60" as="geometry" />
        </mxCell>
        <mxCell id="K9udEW_bLaCcs6DvAatC-12" value="Gửi yêu cầu ký hợp đồng" style="rounded=0;whiteSpace=wrap;html=1;" vertex="1" parent="1">
          <mxGeometry x="1490" y="300" width="120" height="60" as="geometry" />
        </mxCell>
        <mxCell id="K9udEW_bLaCcs6DvAatC-13" value="Thanh toán" style="rounded=0;whiteSpace=wrap;html=1;" vertex="1" parent="1">
          <mxGeometry x="1490" y="380" width="120" height="60" as="geometry" />
        </mxCell>
        <mxCell id="K9udEW_bLaCcs6DvAatC-14" value="Kết thúc" style="rounded=0;whiteSpace=wrap;html=1;" vertex="1" parent="1">
          <mxGeometry x="1490" y="460" width="120" height="60" as="geometry" />
        </mxCell>
        <mxCell id="K9udEW_bLaCcs6DvAatC-15" value="Hoàn thành và dánh giá" style="rounded=0;whiteSpace=wrap;html=1;" vertex="1" parent="1">
          <mxGeometry x="1490" y="540" width="120" height="60" as="geometry" />
        </mxCell>
        <mxCell id="K9udEW_bLaCcs6DvAatC-16" value="Nhắn tin" style="rounded=0;whiteSpace=wrap;html=1;" vertex="1" parent="1">
          <mxGeometry x="1628" y="210" width="120" height="60" as="geometry" />
        </mxCell>
        <mxCell id="K9udEW_bLaCcs6DvAatC-17" value="Gửi đề xuất công việc" style="rounded=0;whiteSpace=wrap;html=1;" vertex="1" parent="1">
          <mxGeometry x="1771" y="210" width="120" height="60" as="geometry" />
        </mxCell>
        <mxCell id="K9udEW_bLaCcs6DvAatC-18" value="Quản lý hợp đồng" style="rounded=0;whiteSpace=wrap;html=1;" vertex="1" parent="1">
          <mxGeometry x="1914" y="210" width="120" height="60" as="geometry" />
        </mxCell>
        <mxCell id="K9udEW_bLaCcs6DvAatC-19" value="Xác nhận hợp đồng" style="rounded=0;whiteSpace=wrap;html=1;" vertex="1" parent="1">
          <mxGeometry x="1900" y="290" width="120" height="60" as="geometry" />
        </mxCell>
        <mxCell id="K9udEW_bLaCcs6DvAatC-20" value="Từ chối hơp đồng" style="rounded=0;whiteSpace=wrap;html=1;" vertex="1" parent="1">
          <mxGeometry x="1900" y="360" width="120" height="60" as="geometry" />
        </mxCell>
        <mxCell id="K9udEW_bLaCcs6DvAatC-21" value="Gửi kết quả" style="rounded=0;whiteSpace=wrap;html=1;" vertex="1" parent="1">
          <mxGeometry x="1900" y="430" width="120" height="60" as="geometry" />
        </mxCell>
        <mxCell id="K9udEW_bLaCcs6DvAatC-22" value="Quản lý thông tin cá nhân" style="rounded=0;whiteSpace=wrap;html=1;" vertex="1" parent="1">
          <mxGeometry x="2057" y="210" width="120" height="60" as="geometry" />
        </mxCell>
        <mxCell id="K9udEW_bLaCcs6DvAatC-23" value="Cập nhật ảnh đại diện" style="rounded=0;whiteSpace=wrap;html=1;" vertex="1" parent="1">
          <mxGeometry x="2080" y="300" width="120" height="60" as="geometry" />
        </mxCell>
        <mxCell id="K9udEW_bLaCcs6DvAatC-24" value="Cập nhật danh sách học vấn" style="rounded=0;whiteSpace=wrap;html=1;" vertex="1" parent="1">
          <mxGeometry x="2080" y="380" width="120" height="60" as="geometry" />
        </mxCell>
        <mxCell id="K9udEW_bLaCcs6DvAatC-25" value="Cập nhật danh sách lịch sử làm việc" style="rounded=0;whiteSpace=wrap;html=1;" vertex="1" parent="1">
          <mxGeometry x="2080" y="450" width="120" height="60" as="geometry" />
        </mxCell>
        <mxCell id="K9udEW_bLaCcs6DvAatC-26" value="Cập nhật danh sách chứng chỉ" style="rounded=0;whiteSpace=wrap;html=1;" vertex="1" parent="1">
          <mxGeometry x="2080" y="520" width="120" height="60" as="geometry" />
        </mxCell>
        <mxCell id="K9udEW_bLaCcs6DvAatC-27" value="Ví tiền" style="rounded=0;whiteSpace=wrap;html=1;" vertex="1" parent="1">
          <mxGeometry x="2200" y="210" width="120" height="60" as="geometry" />
        </mxCell>
        <mxCell id="K9udEW_bLaCcs6DvAatC-28" value="Nạp tiền" style="rounded=0;whiteSpace=wrap;html=1;" vertex="1" parent="1">
          <mxGeometry x="2230" y="295" width="120" height="60" as="geometry" />
        </mxCell>
        <mxCell id="K9udEW_bLaCcs6DvAatC-29" value="Rút tiền" style="rounded=0;whiteSpace=wrap;html=1;" vertex="1" parent="1">
          <mxGeometry x="2230" y="365" width="120" height="60" as="geometry" />
        </mxCell>
        <mxCell id="K9udEW_bLaCcs6DvAatC-30" value="Xem lịch sử giao dịch" style="rounded=0;whiteSpace=wrap;html=1;" vertex="1" parent="1">
          <mxGeometry x="2230" y="440" width="120" height="60" as="geometry" />
        </mxCell>
        <mxCell id="K9udEW_bLaCcs6DvAatC-31" value="Thêm" style="rounded=0;whiteSpace=wrap;html=1;" vertex="1" parent="1">
          <mxGeometry x="390" y="290" width="120" height="60" as="geometry" />
        </mxCell>
        <mxCell id="K9udEW_bLaCcs6DvAatC-32" value="Sửa" style="rounded=0;whiteSpace=wrap;html=1;" vertex="1" parent="1">
          <mxGeometry x="390" y="365" width="120" height="60" as="geometry" />
        </mxCell>
        <mxCell id="K9udEW_bLaCcs6DvAatC-33" value="Xóa" style="rounded=0;whiteSpace=wrap;html=1;" vertex="1" parent="1">
          <mxGeometry x="390" y="440" width="120" height="60" as="geometry" />
        </mxCell>
        <mxCell id="K9udEW_bLaCcs6DvAatC-34" value="Tìm kiếm" style="rounded=0;whiteSpace=wrap;html=1;" vertex="1" parent="1">
          <mxGeometry x="390" y="600" width="120" height="60" as="geometry" />
        </mxCell>
        <mxCell id="K9udEW_bLaCcs6DvAatC-35" value="Xem chi tiết" style="rounded=0;whiteSpace=wrap;html=1;" vertex="1" parent="1">
          <mxGeometry x="390" y="520" width="120" height="60" as="geometry" />
        </mxCell>
        <mxCell id="K9udEW_bLaCcs6DvAatC-40" value="" style="endArrow=none;html=1;rounded=0;exitX=0;exitY=0.5;exitDx=0;exitDy=0;entryX=0.25;entryY=1;entryDx=0;entryDy=0;" edge="1" parent="1" source="K9udEW_bLaCcs6DvAatC-31" target="K9udEW_bLaCcs6DvAatC-2">
          <mxGeometry width="50" height="50" relative="1" as="geometry">
            <mxPoint x="300" y="320" as="sourcePoint" />
            <mxPoint x="350" y="270" as="targetPoint" />
            <Array as="points">
              <mxPoint x="370" y="320" />
            </Array>
          </mxGeometry>
        </mxCell>
        <mxCell id="K9udEW_bLaCcs6DvAatC-41" value="" style="endArrow=none;html=1;rounded=0;exitX=0;exitY=0.5;exitDx=0;exitDy=0;" edge="1" parent="1" source="K9udEW_bLaCcs6DvAatC-34">
          <mxGeometry width="50" height="50" relative="1" as="geometry">
            <mxPoint x="370" y="610" as="sourcePoint" />
            <mxPoint x="370" y="320" as="targetPoint" />
            <Array as="points">
              <mxPoint x="370" y="630" />
            </Array>
          </mxGeometry>
        </mxCell>
        <mxCell id="K9udEW_bLaCcs6DvAatC-44" value="" style="endArrow=none;html=1;rounded=0;entryX=0;entryY=0.5;entryDx=0;entryDy=0;" edge="1" parent="1" target="K9udEW_bLaCcs6DvAatC-32">
          <mxGeometry width="50" height="50" relative="1" as="geometry">
            <mxPoint x="370" y="395" as="sourcePoint" />
            <mxPoint x="420" y="350" as="targetPoint" />
            <Array as="points" />
          </mxGeometry>
        </mxCell>
        <mxCell id="K9udEW_bLaCcs6DvAatC-45" value="" style="endArrow=none;html=1;rounded=0;entryX=0;entryY=0.5;entryDx=0;entryDy=0;" edge="1" parent="1" target="K9udEW_bLaCcs6DvAatC-33">
          <mxGeometry width="50" height="50" relative="1" as="geometry">
            <mxPoint x="370" y="470" as="sourcePoint" />
            <mxPoint x="400" y="430" as="targetPoint" />
          </mxGeometry>
        </mxCell>
        <mxCell id="K9udEW_bLaCcs6DvAatC-46" value="" style="endArrow=none;html=1;rounded=0;" edge="1" parent="1">
          <mxGeometry width="50" height="50" relative="1" as="geometry">
            <mxPoint x="370" y="550" as="sourcePoint" />
            <mxPoint x="390" y="550" as="targetPoint" />
          </mxGeometry>
        </mxCell>
        <mxCell id="K9udEW_bLaCcs6DvAatC-48" value="Thêm" style="rounded=0;whiteSpace=wrap;html=1;" vertex="1" parent="1">
          <mxGeometry x="550" y="290" width="120" height="60" as="geometry" />
        </mxCell>
        <mxCell id="K9udEW_bLaCcs6DvAatC-49" value="Sửa" style="rounded=0;whiteSpace=wrap;html=1;" vertex="1" parent="1">
          <mxGeometry x="550" y="365" width="120" height="60" as="geometry" />
        </mxCell>
        <mxCell id="K9udEW_bLaCcs6DvAatC-50" value="Xóa" style="rounded=0;whiteSpace=wrap;html=1;" vertex="1" parent="1">
          <mxGeometry x="550" y="440" width="120" height="60" as="geometry" />
        </mxCell>
        <mxCell id="K9udEW_bLaCcs6DvAatC-51" value="Tìm kiếm" style="rounded=0;whiteSpace=wrap;html=1;" vertex="1" parent="1">
          <mxGeometry x="550" y="600" width="120" height="60" as="geometry" />
        </mxCell>
        <mxCell id="K9udEW_bLaCcs6DvAatC-52" value="Xem chi tiết" style="rounded=0;whiteSpace=wrap;html=1;" vertex="1" parent="1">
          <mxGeometry x="550" y="520" width="120" height="60" as="geometry" />
        </mxCell>
        <mxCell id="K9udEW_bLaCcs6DvAatC-53" value="" style="endArrow=none;html=1;rounded=0;exitX=0;exitY=0.5;exitDx=0;exitDy=0;" edge="1" parent="1" source="K9udEW_bLaCcs6DvAatC-51">
          <mxGeometry width="50" height="50" relative="1" as="geometry">
            <mxPoint x="530" y="610" as="sourcePoint" />
            <mxPoint x="530" y="320" as="targetPoint" />
            <Array as="points">
              <mxPoint x="530" y="630" />
            </Array>
          </mxGeometry>
        </mxCell>
        <mxCell id="K9udEW_bLaCcs6DvAatC-54" value="" style="endArrow=none;html=1;rounded=0;entryX=0;entryY=0.5;entryDx=0;entryDy=0;" edge="1" parent="1" target="K9udEW_bLaCcs6DvAatC-49">
          <mxGeometry width="50" height="50" relative="1" as="geometry">
            <mxPoint x="530" y="395" as="sourcePoint" />
            <mxPoint x="580" y="350" as="targetPoint" />
            <Array as="points" />
          </mxGeometry>
        </mxCell>
        <mxCell id="K9udEW_bLaCcs6DvAatC-55" value="" style="endArrow=none;html=1;rounded=0;entryX=0;entryY=0.5;entryDx=0;entryDy=0;" edge="1" parent="1" target="K9udEW_bLaCcs6DvAatC-50">
          <mxGeometry width="50" height="50" relative="1" as="geometry">
            <mxPoint x="530" y="470" as="sourcePoint" />
            <mxPoint x="560" y="430" as="targetPoint" />
          </mxGeometry>
        </mxCell>
        <mxCell id="K9udEW_bLaCcs6DvAatC-56" value="" style="endArrow=none;html=1;rounded=0;" edge="1" parent="1">
          <mxGeometry width="50" height="50" relative="1" as="geometry">
            <mxPoint x="530" y="550" as="sourcePoint" />
            <mxPoint x="550" y="550" as="targetPoint" />
          </mxGeometry>
        </mxCell>
        <mxCell id="K9udEW_bLaCcs6DvAatC-57" value="Thêm" style="rounded=0;whiteSpace=wrap;html=1;" vertex="1" parent="1">
          <mxGeometry x="710" y="290" width="120" height="60" as="geometry" />
        </mxCell>
        <mxCell id="K9udEW_bLaCcs6DvAatC-58" value="Sửa" style="rounded=0;whiteSpace=wrap;html=1;" vertex="1" parent="1">
          <mxGeometry x="710" y="365" width="120" height="60" as="geometry" />
        </mxCell>
        <mxCell id="K9udEW_bLaCcs6DvAatC-59" value="Xóa" style="rounded=0;whiteSpace=wrap;html=1;" vertex="1" parent="1">
          <mxGeometry x="710" y="440" width="120" height="60" as="geometry" />
        </mxCell>
        <mxCell id="K9udEW_bLaCcs6DvAatC-60" value="Tìm kiếm" style="rounded=0;whiteSpace=wrap;html=1;" vertex="1" parent="1">
          <mxGeometry x="710" y="600" width="120" height="60" as="geometry" />
        </mxCell>
        <mxCell id="K9udEW_bLaCcs6DvAatC-61" value="Xem chi tiết" style="rounded=0;whiteSpace=wrap;html=1;" vertex="1" parent="1">
          <mxGeometry x="710" y="520" width="120" height="60" as="geometry" />
        </mxCell>
        <mxCell id="K9udEW_bLaCcs6DvAatC-62" value="" style="endArrow=none;html=1;rounded=0;exitX=0;exitY=0.5;exitDx=0;exitDy=0;" edge="1" parent="1" source="K9udEW_bLaCcs6DvAatC-60">
          <mxGeometry width="50" height="50" relative="1" as="geometry">
            <mxPoint x="690" y="610" as="sourcePoint" />
            <mxPoint x="690" y="320" as="targetPoint" />
            <Array as="points">
              <mxPoint x="690" y="630" />
            </Array>
          </mxGeometry>
        </mxCell>
        <mxCell id="K9udEW_bLaCcs6DvAatC-63" value="" style="endArrow=none;html=1;rounded=0;entryX=0;entryY=0.5;entryDx=0;entryDy=0;" edge="1" parent="1" target="K9udEW_bLaCcs6DvAatC-58">
          <mxGeometry width="50" height="50" relative="1" as="geometry">
            <mxPoint x="690" y="395" as="sourcePoint" />
            <mxPoint x="740" y="350" as="targetPoint" />
            <Array as="points" />
          </mxGeometry>
        </mxCell>
        <mxCell id="K9udEW_bLaCcs6DvAatC-64" value="" style="endArrow=none;html=1;rounded=0;entryX=0;entryY=0.5;entryDx=0;entryDy=0;" edge="1" parent="1" target="K9udEW_bLaCcs6DvAatC-59">
          <mxGeometry width="50" height="50" relative="1" as="geometry">
            <mxPoint x="690" y="470" as="sourcePoint" />
            <mxPoint x="720" y="430" as="targetPoint" />
          </mxGeometry>
        </mxCell>
        <mxCell id="K9udEW_bLaCcs6DvAatC-65" value="" style="endArrow=none;html=1;rounded=0;" edge="1" parent="1">
          <mxGeometry width="50" height="50" relative="1" as="geometry">
            <mxPoint x="690" y="550" as="sourcePoint" />
            <mxPoint x="710" y="550" as="targetPoint" />
          </mxGeometry>
        </mxCell>
        <mxCell id="K9udEW_bLaCcs6DvAatC-66" value="Thêm" style="rounded=0;whiteSpace=wrap;html=1;" vertex="1" parent="1">
          <mxGeometry x="870" y="290" width="120" height="60" as="geometry" />
        </mxCell>
        <mxCell id="K9udEW_bLaCcs6DvAatC-67" value="Sửa" style="rounded=0;whiteSpace=wrap;html=1;" vertex="1" parent="1">
          <mxGeometry x="870" y="365" width="120" height="60" as="geometry" />
        </mxCell>
        <mxCell id="K9udEW_bLaCcs6DvAatC-68" value="Xóa" style="rounded=0;whiteSpace=wrap;html=1;" vertex="1" parent="1">
          <mxGeometry x="870" y="440" width="120" height="60" as="geometry" />
        </mxCell>
        <mxCell id="K9udEW_bLaCcs6DvAatC-69" value="Tìm kiếm" style="rounded=0;whiteSpace=wrap;html=1;" vertex="1" parent="1">
          <mxGeometry x="870" y="600" width="120" height="60" as="geometry" />
        </mxCell>
        <mxCell id="K9udEW_bLaCcs6DvAatC-70" value="Xem chi tiết" style="rounded=0;whiteSpace=wrap;html=1;" vertex="1" parent="1">
          <mxGeometry x="870" y="520" width="120" height="60" as="geometry" />
        </mxCell>
        <mxCell id="K9udEW_bLaCcs6DvAatC-71" value="" style="endArrow=none;html=1;rounded=0;exitX=0;exitY=0.5;exitDx=0;exitDy=0;" edge="1" parent="1" source="K9udEW_bLaCcs6DvAatC-69">
          <mxGeometry width="50" height="50" relative="1" as="geometry">
            <mxPoint x="850" y="610" as="sourcePoint" />
            <mxPoint x="850" y="320" as="targetPoint" />
            <Array as="points">
              <mxPoint x="850" y="630" />
            </Array>
          </mxGeometry>
        </mxCell>
        <mxCell id="K9udEW_bLaCcs6DvAatC-72" value="" style="endArrow=none;html=1;rounded=0;entryX=0;entryY=0.5;entryDx=0;entryDy=0;" edge="1" parent="1" target="K9udEW_bLaCcs6DvAatC-67">
          <mxGeometry width="50" height="50" relative="1" as="geometry">
            <mxPoint x="850" y="395" as="sourcePoint" />
            <mxPoint x="900" y="350" as="targetPoint" />
            <Array as="points" />
          </mxGeometry>
        </mxCell>
        <mxCell id="K9udEW_bLaCcs6DvAatC-73" value="" style="endArrow=none;html=1;rounded=0;entryX=0;entryY=0.5;entryDx=0;entryDy=0;" edge="1" parent="1" target="K9udEW_bLaCcs6DvAatC-68">
          <mxGeometry width="50" height="50" relative="1" as="geometry">
            <mxPoint x="850" y="470" as="sourcePoint" />
            <mxPoint x="880" y="430" as="targetPoint" />
          </mxGeometry>
        </mxCell>
        <mxCell id="K9udEW_bLaCcs6DvAatC-74" value="" style="endArrow=none;html=1;rounded=0;" edge="1" parent="1">
          <mxGeometry width="50" height="50" relative="1" as="geometry">
            <mxPoint x="850" y="550" as="sourcePoint" />
            <mxPoint x="870" y="550" as="targetPoint" />
          </mxGeometry>
        </mxCell>
        <mxCell id="K9udEW_bLaCcs6DvAatC-75" value="Thêm" style="rounded=0;whiteSpace=wrap;html=1;" vertex="1" parent="1">
          <mxGeometry x="1030" y="295" width="120" height="60" as="geometry" />
        </mxCell>
        <mxCell id="K9udEW_bLaCcs6DvAatC-76" value="Sửa" style="rounded=0;whiteSpace=wrap;html=1;" vertex="1" parent="1">
          <mxGeometry x="1030" y="370" width="120" height="60" as="geometry" />
        </mxCell>
        <mxCell id="K9udEW_bLaCcs6DvAatC-77" value="Xóa" style="rounded=0;whiteSpace=wrap;html=1;" vertex="1" parent="1">
          <mxGeometry x="1030" y="445" width="120" height="60" as="geometry" />
        </mxCell>
        <mxCell id="K9udEW_bLaCcs6DvAatC-78" value="Tìm kiếm" style="rounded=0;whiteSpace=wrap;html=1;" vertex="1" parent="1">
          <mxGeometry x="1030" y="605" width="120" height="60" as="geometry" />
        </mxCell>
        <mxCell id="K9udEW_bLaCcs6DvAatC-79" value="Xem chi tiết" style="rounded=0;whiteSpace=wrap;html=1;" vertex="1" parent="1">
          <mxGeometry x="1030" y="525" width="120" height="60" as="geometry" />
        </mxCell>
        <mxCell id="K9udEW_bLaCcs6DvAatC-80" value="" style="endArrow=none;html=1;rounded=0;exitX=0;exitY=0.5;exitDx=0;exitDy=0;" edge="1" parent="1" source="K9udEW_bLaCcs6DvAatC-78">
          <mxGeometry width="50" height="50" relative="1" as="geometry">
            <mxPoint x="1010" y="615" as="sourcePoint" />
            <mxPoint x="1010" y="325" as="targetPoint" />
            <Array as="points">
              <mxPoint x="1010" y="635" />
            </Array>
          </mxGeometry>
        </mxCell>
        <mxCell id="K9udEW_bLaCcs6DvAatC-81" value="" style="endArrow=none;html=1;rounded=0;entryX=0;entryY=0.5;entryDx=0;entryDy=0;" edge="1" parent="1" target="K9udEW_bLaCcs6DvAatC-76">
          <mxGeometry width="50" height="50" relative="1" as="geometry">
            <mxPoint x="1010" y="400" as="sourcePoint" />
            <mxPoint x="1060" y="355" as="targetPoint" />
            <Array as="points" />
          </mxGeometry>
        </mxCell>
        <mxCell id="K9udEW_bLaCcs6DvAatC-82" value="" style="endArrow=none;html=1;rounded=0;entryX=0;entryY=0.5;entryDx=0;entryDy=0;" edge="1" parent="1" target="K9udEW_bLaCcs6DvAatC-77">
          <mxGeometry width="50" height="50" relative="1" as="geometry">
            <mxPoint x="1010" y="475" as="sourcePoint" />
            <mxPoint x="1040" y="435" as="targetPoint" />
          </mxGeometry>
        </mxCell>
        <mxCell id="K9udEW_bLaCcs6DvAatC-83" value="" style="endArrow=none;html=1;rounded=0;" edge="1" parent="1">
          <mxGeometry width="50" height="50" relative="1" as="geometry">
            <mxPoint x="1010" y="555" as="sourcePoint" />
            <mxPoint x="1030" y="555" as="targetPoint" />
          </mxGeometry>
        </mxCell>
        <mxCell id="K9udEW_bLaCcs6DvAatC-84" value="Thêm" style="rounded=0;whiteSpace=wrap;html=1;" vertex="1" parent="1">
          <mxGeometry x="1180" y="295" width="120" height="60" as="geometry" />
        </mxCell>
        <mxCell id="K9udEW_bLaCcs6DvAatC-85" value="Sửa" style="rounded=0;whiteSpace=wrap;html=1;" vertex="1" parent="1">
          <mxGeometry x="1180" y="370" width="120" height="60" as="geometry" />
        </mxCell>
        <mxCell id="K9udEW_bLaCcs6DvAatC-86" value="Xóa" style="rounded=0;whiteSpace=wrap;html=1;" vertex="1" parent="1">
          <mxGeometry x="1180" y="445" width="120" height="60" as="geometry" />
        </mxCell>
        <mxCell id="K9udEW_bLaCcs6DvAatC-87" value="Tìm kiếm" style="rounded=0;whiteSpace=wrap;html=1;" vertex="1" parent="1">
          <mxGeometry x="1180" y="605" width="120" height="60" as="geometry" />
        </mxCell>
        <mxCell id="K9udEW_bLaCcs6DvAatC-88" value="Xem chi tiết" style="rounded=0;whiteSpace=wrap;html=1;" vertex="1" parent="1">
          <mxGeometry x="1180" y="525" width="120" height="60" as="geometry" />
        </mxCell>
        <mxCell id="K9udEW_bLaCcs6DvAatC-89" value="" style="endArrow=none;html=1;rounded=0;exitX=0;exitY=0.5;exitDx=0;exitDy=0;" edge="1" parent="1" source="K9udEW_bLaCcs6DvAatC-87">
          <mxGeometry width="50" height="50" relative="1" as="geometry">
            <mxPoint x="1160" y="615" as="sourcePoint" />
            <mxPoint x="1160" y="325" as="targetPoint" />
            <Array as="points">
              <mxPoint x="1160" y="635" />
            </Array>
          </mxGeometry>
        </mxCell>
        <mxCell id="K9udEW_bLaCcs6DvAatC-90" value="" style="endArrow=none;html=1;rounded=0;entryX=0;entryY=0.5;entryDx=0;entryDy=0;" edge="1" parent="1" target="K9udEW_bLaCcs6DvAatC-85">
          <mxGeometry width="50" height="50" relative="1" as="geometry">
            <mxPoint x="1160" y="400" as="sourcePoint" />
            <mxPoint x="1210" y="355" as="targetPoint" />
            <Array as="points" />
          </mxGeometry>
        </mxCell>
        <mxCell id="K9udEW_bLaCcs6DvAatC-91" value="" style="endArrow=none;html=1;rounded=0;entryX=0;entryY=0.5;entryDx=0;entryDy=0;" edge="1" parent="1" target="K9udEW_bLaCcs6DvAatC-86">
          <mxGeometry width="50" height="50" relative="1" as="geometry">
            <mxPoint x="1160" y="475" as="sourcePoint" />
            <mxPoint x="1190" y="435" as="targetPoint" />
          </mxGeometry>
        </mxCell>
        <mxCell id="K9udEW_bLaCcs6DvAatC-92" value="" style="endArrow=none;html=1;rounded=0;" edge="1" parent="1">
          <mxGeometry width="50" height="50" relative="1" as="geometry">
            <mxPoint x="1160" y="555" as="sourcePoint" />
            <mxPoint x="1180" y="555" as="targetPoint" />
          </mxGeometry>
        </mxCell>
      </root>
    </mxGraphModel>
  </diagram>
</mxfile>
